solid OpenSCAD_Model
  facet normal -0 -1 -2.22045e-16
    outer loop
      vertex 17.65 -4.4228e-16 6.99185
      vertex 17.3566 -8.8456e-16 8.9837
      vertex 16.2066 -4.4228e-16 6.99185
    endloop
  endfacet
  facet normal 0 -1 -2.22045e-16
    outer loop
      vertex 17.3566 -8.8456e-16 8.9837
      vertex 17.65 -4.4228e-16 6.99185
      vertex 18.8 -8.8456e-16 8.9837
    endloop
  endfacet
  facet normal 0 -1 -2.22045e-16
    outer loop
      vertex 16.2066 -4.4228e-16 6.99185
      vertex 18.8 0 5
      vertex 17.65 -4.4228e-16 6.99185
    endloop
  endfacet
  facet normal 0 -1 -2.22045e-16
    outer loop
      vertex 18.6657 5.03456e-16 2.73264
      vertex 18.8 0 5
      vertex 16.2066 -4.4228e-16 6.99185
    endloop
  endfacet
  facet normal 0 -1 -2.22045e-16
    outer loop
      vertex 18.6657 5.03456e-16 2.73264
      vertex 22.2 0 5
      vertex 18.8 0 5
    endloop
  endfacet
  facet normal -0 -1 -2.22045e-16
    outer loop
      vertex 17.9545 8.32667e-16 1.25
      vertex 18.6657 5.03456e-16 2.73264
      vertex 17.4216 8.32667e-16 1.25
    endloop
  endfacet
  facet normal 0 -1 -2.22045e-16
    outer loop
      vertex 18.0045 1.11022e-15 0
      vertex 18.6657 5.03456e-16 2.73264
      vertex 17.9545 8.32667e-16 1.25
    endloop
  endfacet
  facet normal 0 -1 0
    outer loop
      vertex 18.0045 1.11022e-15 0
      vertex 15.9469 1.11022e-15 2.33783e-16
      vertex 15.9469 1.11022e-15 0
    endloop
  endfacet
  facet normal 0 -1 -2.22045e-16
    outer loop
      vertex 18.6657 5.03456e-16 2.73264
      vertex 18.0045 1.11022e-15 0
      vertex 22.2 0 5
    endloop
  endfacet
  facet normal -2.52281e-32 -1 -2.22045e-16
    outer loop
      vertex 15.9469 1.11022e-15 2.33783e-16
      vertex 18.0045 1.11022e-15 0
      vertex 17.9545 8.32667e-16 1.25
    endloop
  endfacet
  facet normal 0 -1 -2.22045e-16
    outer loop
      vertex 0 0 5
      vertex 3.5343 5.03456e-16 2.73264
      vertex 3.39999 0 5
    endloop
  endfacet
  facet normal 0 -1 -2.22045e-16
    outer loop
      vertex 4.1955 1.11022e-15 0
      vertex 3.5343 5.03456e-16 2.73264
      vertex 0 0 5
    endloop
  endfacet
  facet normal 0 -1 -2.22045e-16
    outer loop
      vertex 3.5343 5.03456e-16 2.73264
      vertex 4.1955 1.11022e-15 0
      vertex 4.2455 8.32667e-16 1.25
    endloop
  endfacet
  facet normal 2.52281e-32 -1 -2.22045e-16
    outer loop
      vertex 4.1955 1.11022e-15 0
      vertex 6.25313 1.11022e-15 2.33783e-16
      vertex 4.2455 8.32667e-16 1.25
    endloop
  endfacet
  facet normal 0 -1 -0
    outer loop
      vertex 6.25313 1.11022e-15 2.33783e-16
      vertex 4.1955 1.11022e-15 0
      vertex 6.25313 1.11022e-15 0
    endloop
  endfacet
  facet normal 0 -1 -2.22045e-16
    outer loop
      vertex 4.54999 -4.4228e-16 6.99185
      vertex 4.84337 -8.8456e-16 8.9837
      vertex 3.39999 -8.8456e-16 8.9837
    endloop
  endfacet
  facet normal 0 -1 -2.22045e-16
    outer loop
      vertex 4.54999 -4.4228e-16 6.99185
      vertex 5.99336 -4.4228e-16 6.99185
      vertex 4.84337 -8.8456e-16 8.9837
    endloop
  endfacet
  facet normal 0 -1 -2.22045e-16
    outer loop
      vertex 3.39999 0 5
      vertex 5.99336 -4.4228e-16 6.99185
      vertex 4.54999 -4.4228e-16 6.99185
    endloop
  endfacet
  facet normal 0 -1 -2.22045e-16
    outer loop
      vertex 5.99336 -4.4228e-16 6.99185
      vertex 3.39999 0 5
      vertex 3.5343 5.03456e-16 2.73264
    endloop
  endfacet
  facet normal 0 -1 -2.22045e-16
    outer loop
      vertex 3.5343 5.03456e-16 2.73264
      vertex 4.2455 8.32667e-16 1.25
      vertex 4.77838 8.32667e-16 1.25
    endloop
  endfacet
  facet normal 0 1 0
    outer loop
      vertex 22.2 11 5
      vertex 18.6657 11 2.73264
      vertex 17.3566 11 5
    endloop
  endfacet
  facet normal 0 1 0
    outer loop
      vertex 18.0468 11 0.0503626
      vertex 18.6657 11 2.73264
      vertex 22.2 11 5
    endloop
  endfacet
  facet normal 0 1 0
    outer loop
      vertex 17.4216 11 1.25
      vertex 18.0468 11 0.0503626
      vertex 17.0623 11 1.25
    endloop
  endfacet
  facet normal 0 1 0
    outer loop
      vertex 18.6657 11 2.73264
      vertex 18.0468 11 0.0503626
      vertex 17.4216 11 1.25
    endloop
  endfacet
  facet normal 0 1 0
    outer loop
      vertex 5.1377 11 1.25
      vertex 4.15324 11 0.0503609
      vertex 4.77838 11 1.25
    endloop
  endfacet
  facet normal 0 1 -0
    outer loop
      vertex 3.5343 11 2.73264
      vertex 0 11 5
      vertex 4.84337 11 5
    endloop
  endfacet
  facet normal 0 1 -0
    outer loop
      vertex 4.15324 11 0.0503609
      vertex 3.5343 11 2.73264
      vertex 4.77838 11 1.25
    endloop
  endfacet
  facet normal 0 1 0
    outer loop
      vertex 3.5343 11 2.73264
      vertex 4.15324 11 0.0503609
      vertex 0 11 5
    endloop
  endfacet
  facet normal 0.766045 -8.50172e-06 -0.642787
    outer loop
      vertex 22.2 11 5
      vertex 18.0247 10.9244 0.0240639
      vertex 18.0468 11 0.0503626
    endloop
  endfacet
  facet normal 0.766045 9.23008e-06 -0.642788
    outer loop
      vertex 22.2 11 5
      vertex 18.0045 10.8552 2.41034e-15
      vertex 18.0247 10.9244 0.0240639
    endloop
  endfacet
  facet normal 0.766045 0 -0.642787
    outer loop
      vertex 22.2 5.55 5
      vertex 18.0045 10.8552 2.41034e-15
      vertex 22.2 11 5
    endloop
  endfacet
  facet normal 0.766045 1.50427e-16 -0.642787
    outer loop
      vertex 22.2 5.55 5
      vertex 18.0045 1.11022e-15 0
      vertex 18.0045 10.8552 2.41034e-15
    endloop
  endfacet
  facet normal 0.766045 0 -0.642787
    outer loop
      vertex 18.0045 1.11022e-15 0
      vertex 22.2 5.55 5
      vertex 22.2 0 5
    endloop
  endfacet
  facet normal 0 2.22045e-16 -1
    outer loop
      vertex 14.594 4.94814 1.09871e-15
      vertex 18.0045 1.11022e-15 0
      vertex 15.9469 1.11022e-15 0
    endloop
  endfacet
  facet normal 0 2.22045e-16 -1
    outer loop
      vertex 18.0045 1.11022e-15 0
      vertex 14.594 4.94814 1.09871e-15
      vertex 18.0045 10.8552 2.41034e-15
    endloop
  endfacet
  facet normal -3.12395e-32 2.22045e-16 -1
    outer loop
      vertex 13.5234 4.19751 9.32034e-16
      vertex 14.594 4.94814 1.09871e-15
      vertex 15.9469 1.11022e-15 0
    endloop
  endfacet
  facet normal 0 2.22045e-16 -1
    outer loop
      vertex 8.67657 4.19751 9.32034e-16
      vertex 14.594 4.94814 1.09871e-15
      vertex 13.5234 4.19751 9.32034e-16
    endloop
  endfacet
  facet normal 0 2.22045e-16 -1
    outer loop
      vertex 8.67657 4.19751 9.32034e-16
      vertex 7.60595 4.94814 1.09871e-15
      vertex 14.594 4.94814 1.09871e-15
    endloop
  endfacet
  facet normal 0 2.22045e-16 -1
    outer loop
      vertex 6.25313 1.11022e-15 0
      vertex 7.60595 4.94814 1.09871e-15
      vertex 8.67657 4.19751 9.32034e-16
    endloop
  endfacet
  facet normal 0 2.22045e-16 -1
    outer loop
      vertex 4.1955 1.11022e-15 0
      vertex 7.60595 4.94814 1.09871e-15
      vertex 6.25313 1.11022e-15 0
    endloop
  endfacet
  facet normal 2.86578e-32 2.22045e-16 -1
    outer loop
      vertex 7.60595 4.94814 1.09871e-15
      vertex 4.1955 1.11022e-15 0
      vertex 7.58614 4.98245 1.10633e-15
    endloop
  endfacet
  facet normal 2.14328e-32 2.22045e-16 -1
    outer loop
      vertex 7.58614 4.98245 1.10633e-15
      vertex 4.1955 1.11022e-15 0
      vertex 4.1955 10.8552 2.41034e-15
    endloop
  endfacet
  facet normal -0.766045 -8.01072e-08 -0.642787
    outer loop
      vertex 4.1955 10.8552 2.41034e-15
      vertex 0 11 5
      vertex 4.15324 11 0.0503609
    endloop
  endfacet
  facet normal -0.766045 0 -0.642787
    outer loop
      vertex 4.1955 10.8552 2.41034e-15
      vertex 0 5.55 5
      vertex 0 11 5
    endloop
  endfacet
  facet normal -0.766045 1.42727e-16 -0.642787
    outer loop
      vertex 4.1955 1.11022e-15 0
      vertex 0 5.55 5
      vertex 4.1955 10.8552 2.41034e-15
    endloop
  endfacet
  facet normal -0.766045 -0 -0.642787
    outer loop
      vertex 0 5.55 5
      vertex 4.1955 1.11022e-15 0
      vertex 0 0 5
    endloop
  endfacet
  facet normal -0 0 1
    outer loop
      vertex 0 5.55 5
      vertex 3.39999 0 5
      vertex 3.39999 5.55 5
    endloop
  endfacet
  facet normal 0 0 1
    outer loop
      vertex 3.39999 0 5
      vertex 0 5.55 5
      vertex 0 0 5
    endloop
  endfacet
  facet normal -0 0 1
    outer loop
      vertex 18.8 5.55 5
      vertex 22.2 0 5
      vertex 22.2 5.55 5
    endloop
  endfacet
  facet normal 0 0 1
    outer loop
      vertex 22.2 0 5
      vertex 18.8 5.55 5
      vertex 18.8 0 5
    endloop
  endfacet
  facet normal 0 0 1
    outer loop
      vertex 4.84337 11 5
      vertex 3.39999 5.55 5
      vertex 4.84337 5.55 5
    endloop
  endfacet
  facet normal -0 0 1
    outer loop
      vertex 0 11 5
      vertex 3.39999 5.55 5
      vertex 4.84337 11 5
    endloop
  endfacet
  facet normal 0 0 1
    outer loop
      vertex 3.39999 5.55 5
      vertex 0 11 5
      vertex 0 5.55 5
    endloop
  endfacet
  facet normal 0 0 1
    outer loop
      vertex 22.2 11 5
      vertex 18.8 5.55 5
      vertex 22.2 5.55 5
    endloop
  endfacet
  facet normal -0 0 1
    outer loop
      vertex 17.3566 11 5
      vertex 18.8 5.55 5
      vertex 22.2 11 5
    endloop
  endfacet
  facet normal 0 0 1
    outer loop
      vertex 18.8 5.55 5
      vertex 17.3566 11 5
      vertex 17.3566 5.55 5
    endloop
  endfacet
  facet normal -0.866026 0 0.499999
    outer loop
      vertex 3.39999 0 5
      vertex 4.54999 5.55 6.99185
      vertex 3.39999 5.55 5
    endloop
  endfacet
  facet normal -0.866026 0 0.499999
    outer loop
      vertex 4.54999 5.55 6.99185
      vertex 3.39999 0 5
      vertex 4.54999 -4.4228e-16 6.99185
    endloop
  endfacet
  facet normal -0.866026 0 -0.499999
    outer loop
      vertex 4.54999 -4.4228e-16 6.99185
      vertex 3.39999 5.55 8.9837
      vertex 4.54999 5.55 6.99185
    endloop
  endfacet
  facet normal -0.866026 -0 -0.499999
    outer loop
      vertex 3.39999 5.55 8.9837
      vertex 4.54999 -4.4228e-16 6.99185
      vertex 3.39999 -8.8456e-16 8.9837
    endloop
  endfacet
  facet normal -0 0 1
    outer loop
      vertex 3.39999 5.55 8.9837
      vertex 4.84337 -8.8456e-16 8.9837
      vertex 4.84337 5.55 8.9837
    endloop
  endfacet
  facet normal 0 0 1
    outer loop
      vertex 4.84337 -8.8456e-16 8.9837
      vertex 3.39999 5.55 8.9837
      vertex 3.39999 -8.8456e-16 8.9837
    endloop
  endfacet
  facet normal 0.866026 0 0.499999
    outer loop
      vertex 4.84337 5.55 8.9837
      vertex 5.99336 -4.4228e-16 6.99185
      vertex 5.99336 5.55 6.99185
    endloop
  endfacet
  facet normal 0.866026 0 0.499999
    outer loop
      vertex 5.99336 -4.4228e-16 6.99185
      vertex 4.84337 5.55 8.9837
      vertex 4.84337 -8.8456e-16 8.9837
    endloop
  endfacet
  facet normal 0.866025 0 -0.5
    outer loop
      vertex 5.99336 -4.4228e-16 6.99185
      vertex 4.84337 5.55 5
      vertex 5.99336 5.55 6.99185
    endloop
  endfacet
  facet normal 0.866025 1.86231e-08 -0.5
    outer loop
      vertex 4.84337 5.55 5
      vertex 5.99336 -4.4228e-16 6.99185
      vertex 3.5343 5.03456e-16 2.73264
    endloop
  endfacet
  facet normal 0.866025 0 -0.5
    outer loop
      vertex 4.84337 5.55 5
      vertex 3.5343 11 2.73264
      vertex 4.84337 11 5
    endloop
  endfacet
  facet normal 0.866025 0 -0.5
    outer loop
      vertex 3.5343 11 2.73264
      vertex 4.84337 5.55 5
      vertex 3.5343 5.03456e-16 2.73264
    endloop
  endfacet
  facet normal 0.766044 0 0.642788
    outer loop
      vertex 3.5343 11 2.73264
      vertex 4.77838 8.32667e-16 1.25
      vertex 4.77838 11 1.25
    endloop
  endfacet
  facet normal 0.766044 0 0.642788
    outer loop
      vertex 4.77838 8.32667e-16 1.25
      vertex 3.5343 11 2.73264
      vertex 3.5343 5.03456e-16 2.73264
    endloop
  endfacet
  facet normal 0 0 1
    outer loop
      vertex 15.8043 8.821 1.25
      vertex 17.4216 11 1.25
      vertex 17.0623 11 1.25
    endloop
  endfacet
  facet normal 0 0 1
    outer loop
      vertex 17.4216 11 1.25
      vertex 15.8043 8.821 1.25
      vertex 17.4216 8.32667e-16 1.25
    endloop
  endfacet
  facet normal -0 0 1
    outer loop
      vertex 14.0812 5.83649 1.25
      vertex 17.4216 8.32667e-16 1.25
      vertex 15.8043 8.821 1.25
    endloop
  endfacet
  facet normal -0 0 1
    outer loop
      vertex 8.11885 5.83649 1.25
      vertex 17.4216 8.32667e-16 1.25
      vertex 14.0812 5.83649 1.25
    endloop
  endfacet
  facet normal -0 0 1
    outer loop
      vertex 4.77838 11 1.25
      vertex 6.8608 8.01549 1.25
      vertex 5.1377 11 1.25
    endloop
  endfacet
  facet normal 0 0 1
    outer loop
      vertex 4.77838 8.32667e-16 1.25
      vertex 6.8608 8.01549 1.25
      vertex 4.77838 11 1.25
    endloop
  endfacet
  facet normal 0 0 1
    outer loop
      vertex 8.11885 5.83649 1.25
      vertex 4.77838 8.32667e-16 1.25
      vertex 17.4216 8.32667e-16 1.25
    endloop
  endfacet
  facet normal 0 0 1
    outer loop
      vertex 6.8608 8.01549 1.25
      vertex 4.77838 8.32667e-16 1.25
      vertex 8.11885 5.83649 1.25
    endloop
  endfacet
  facet normal -0.766044 0 0.642788
    outer loop
      vertex 17.4216 8.32667e-16 1.25
      vertex 18.6657 11 2.73264
      vertex 17.4216 11 1.25
    endloop
  endfacet
  facet normal -0.766044 0 0.642788
    outer loop
      vertex 18.6657 11 2.73264
      vertex 17.4216 8.32667e-16 1.25
      vertex 18.6657 5.03456e-16 2.73264
    endloop
  endfacet
  facet normal -0.866025 0 -0.5
    outer loop
      vertex 18.6657 11 2.73264
      vertex 17.3566 5.55 5
      vertex 17.3566 11 5
    endloop
  endfacet
  facet normal -0.866025 0 -0.5
    outer loop
      vertex 18.6657 5.03456e-16 2.73264
      vertex 17.3566 5.55 5
      vertex 18.6657 11 2.73264
    endloop
  endfacet
  facet normal -0.866025 -1.30189e-07 -0.5
    outer loop
      vertex 16.2066 -4.4228e-16 6.99185
      vertex 17.3566 5.55 5
      vertex 18.6657 5.03456e-16 2.73264
    endloop
  endfacet
  facet normal -0.866025 0 -0.5
    outer loop
      vertex 17.3566 5.55 5
      vertex 16.2066 -4.4228e-16 6.99185
      vertex 16.2066 5.55 6.99185
    endloop
  endfacet
  facet normal -0.866026 0 0.499999
    outer loop
      vertex 16.2066 -4.4228e-16 6.99185
      vertex 17.3566 5.55 8.9837
      vertex 16.2066 5.55 6.99185
    endloop
  endfacet
  facet normal -0.866026 0 0.499999
    outer loop
      vertex 17.3566 5.55 8.9837
      vertex 16.2066 -4.4228e-16 6.99185
      vertex 17.3566 -8.8456e-16 8.9837
    endloop
  endfacet
  facet normal -0 0 1
    outer loop
      vertex 17.3566 5.55 8.9837
      vertex 18.8 -8.8456e-16 8.9837
      vertex 18.8 5.55 8.9837
    endloop
  endfacet
  facet normal 0 0 1
    outer loop
      vertex 18.8 -8.8456e-16 8.9837
      vertex 17.3566 5.55 8.9837
      vertex 17.3566 -8.8456e-16 8.9837
    endloop
  endfacet
  facet normal 0.866026 0 -0.499999
    outer loop
      vertex 18.8 5.55 8.9837
      vertex 17.65 -4.4228e-16 6.99185
      vertex 17.65 5.55 6.99185
    endloop
  endfacet
  facet normal 0.866026 0 -0.499999
    outer loop
      vertex 17.65 -4.4228e-16 6.99185
      vertex 18.8 5.55 8.9837
      vertex 18.8 -8.8456e-16 8.9837
    endloop
  endfacet
  facet normal 0.866026 0 0.499999
    outer loop
      vertex 17.65 5.55 6.99185
      vertex 18.8 0 5
      vertex 18.8 5.55 5
    endloop
  endfacet
  facet normal 0.866026 0 0.499999
    outer loop
      vertex 18.8 0 5
      vertex 17.65 5.55 6.99185
      vertex 17.65 -4.4228e-16 6.99185
    endloop
  endfacet
  facet normal 0 1 0
    outer loop
      vertex 4.54999 5.55 6.99185
      vertex 4.84337 5.55 8.9837
      vertex 5.99336 5.55 6.99185
    endloop
  endfacet
  facet normal 0 1 0
    outer loop
      vertex 4.84337 5.55 8.9837
      vertex 4.54999 5.55 6.99185
      vertex 3.39999 5.55 8.9837
    endloop
  endfacet
  facet normal 0 1 -0
    outer loop
      vertex 4.84337 5.55 5
      vertex 4.54999 5.55 6.99185
      vertex 5.99336 5.55 6.99185
    endloop
  endfacet
  facet normal 0 1 0
    outer loop
      vertex 4.54999 5.55 6.99185
      vertex 4.84337 5.55 5
      vertex 3.39999 5.55 5
    endloop
  endfacet
  facet normal 0 1 -0
    outer loop
      vertex 17.65 5.55 6.99185
      vertex 17.3566 5.55 8.9837
      vertex 18.8 5.55 8.9837
    endloop
  endfacet
  facet normal 0 1 0
    outer loop
      vertex 17.65 5.55 6.99185
      vertex 16.2066 5.55 6.99185
      vertex 17.3566 5.55 8.9837
    endloop
  endfacet
  facet normal 0 1 0
    outer loop
      vertex 17.3566 5.55 5
      vertex 17.65 5.55 6.99185
      vertex 18.8 5.55 5
    endloop
  endfacet
  facet normal 0 1 0
    outer loop
      vertex 17.65 5.55 6.99185
      vertex 17.3566 5.55 5
      vertex 16.2066 5.55 6.99185
    endloop
  endfacet
  facet normal 0 -0.583739 -0.811941
    outer loop
      vertex 14.5273 -5.93617 1.25
      vertex 8.67657 -4.19751 0
      vertex 13.5234 -4.19751 0
    endloop
  endfacet
  facet normal 0 -0.583739 -0.811941
    outer loop
      vertex 8.67657 -4.19751 0
      vertex 14.5273 -5.93617 1.25
      vertex 7.67275 -5.93617 1.25
    endloop
  endfacet
  facet normal 4.36557e-10 1 -7.01159e-10
    outer loop
      vertex 15.9469 0 0
      vertex 17.9545 8.32667e-16 1.25
      vertex 17.9545 0 1.25
    endloop
  endfacet
  facet normal 0.521145 0.166767 -0.837016
    outer loop
      vertex 17.9545 8.32667e-16 1.25
      vertex 15.9469 0 0
      vertex 15.9469 1.11022e-15 2.33783e-16
    endloop
  endfacet
  facet normal 0.866025 0.5 0
    outer loop
      vertex 15.9469 1.11022e-15 0
      vertex 13.5234 4.19751 0
      vertex 13.5234 4.19751 9.32034e-16
    endloop
  endfacet
  facet normal 1 0 0
    outer loop
      vertex 15.9469 0 0
      vertex 15.9469 1.11022e-15 0
      vertex 15.9469 1.11022e-15 2.33783e-16
    endloop
  endfacet
  facet normal 0.505533 -0.29187 -0.811941
    outer loop
      vertex 14.5273 -5.93617 1.25
      vertex 13.5234 -4.19751 0
      vertex 15.9469 0 0
    endloop
  endfacet
  facet normal 0.505533 -0.29187 -0.811941
    outer loop
      vertex 17.9545 0 1.25
      vertex 14.5273 -5.93617 1.25
      vertex 15.9469 0 0
    endloop
  endfacet
  facet normal 0 0 1
    outer loop
      vertex 14.5273 -5.93617 1.25
      vertex 17.9545 8.32667e-16 1.25
      vertex 17.4216 8.32667e-16 1.25
    endloop
  endfacet
  facet normal 0 0 1
    outer loop
      vertex 17.9545 8.32667e-16 1.25
      vertex 14.5273 -5.93617 1.25
      vertex 17.9545 0 1.25
    endloop
  endfacet
  facet normal 0 0 1
    outer loop
      vertex 17.4216 8.32667e-16 1.25
      vertex 7.67275 -5.93617 1.25
      vertex 14.5273 -5.93617 1.25
    endloop
  endfacet
  facet normal -0 0 1
    outer loop
      vertex 4.77838 8.32667e-16 1.25
      vertex 7.67275 -5.93617 1.25
      vertex 17.4216 8.32667e-16 1.25
    endloop
  endfacet
  facet normal 0 0 1
    outer loop
      vertex 4.2455 0 1.25
      vertex 4.77838 8.32667e-16 1.25
      vertex 4.2455 8.32667e-16 1.25
    endloop
  endfacet
  facet normal 0 0 1
    outer loop
      vertex 4.77838 8.32667e-16 1.25
      vertex 4.2455 0 1.25
      vertex 7.67275 -5.93617 1.25
    endloop
  endfacet
  facet normal -0.505533 -0.29187 -0.811941
    outer loop
      vertex 7.67275 -5.93617 1.25
      vertex 4.2455 0 1.25
      vertex 6.25313 0 0
    endloop
  endfacet
  facet normal 0 1 -0
    outer loop
      vertex 13.5234 4.19751 0
      vertex 8.67657 4.19751 9.32034e-16
      vertex 13.5234 4.19751 9.32034e-16
    endloop
  endfacet
  facet normal 0 1 0
    outer loop
      vertex 8.67657 4.19751 9.32034e-16
      vertex 13.5234 4.19751 0
      vertex 8.67657 4.19751 0
    endloop
  endfacet
  facet normal -0.521145 0.166766 -0.837016
    outer loop
      vertex 4.2455 0 1.25
      vertex 6.25313 1.11022e-15 2.33783e-16
      vertex 6.25313 0 0
    endloop
  endfacet
  facet normal -0.528547 0 -0.848904
    outer loop
      vertex 6.25313 1.11022e-15 2.33783e-16
      vertex 4.2455 0 1.25
      vertex 4.2455 8.32667e-16 1.25
    endloop
  endfacet
  facet normal -0.866025 0.5 0
    outer loop
      vertex 8.67657 4.19751 0
      vertex 6.25313 1.11022e-15 0
      vertex 8.67657 4.19751 9.32034e-16
    endloop
  endfacet
  facet normal -1 0 0
    outer loop
      vertex 6.25313 1.11022e-15 0
      vertex 6.25313 0 0
      vertex 6.25313 1.11022e-15 2.33783e-16
    endloop
  endfacet
  facet normal 0 0 -1
    outer loop
      vertex 13.5234 -4.19751 0
      vertex 15.9469 1.11022e-15 0
      vertex 15.9469 0 0
    endloop
  endfacet
  facet normal 0 0 -1
    outer loop
      vertex 13.5234 -4.19751 0
      vertex 13.5234 4.19751 0
      vertex 15.9469 1.11022e-15 0
    endloop
  endfacet
  facet normal 0 0 -1
    outer loop
      vertex 8.67657 -4.19751 0
      vertex 13.5234 4.19751 0
      vertex 13.5234 -4.19751 0
    endloop
  endfacet
  facet normal 0 0 -1
    outer loop
      vertex 8.67657 -4.19751 0
      vertex 8.67657 4.19751 0
      vertex 13.5234 4.19751 0
    endloop
  endfacet
  facet normal 0 0 -1
    outer loop
      vertex 6.25313 0 0
      vertex 8.67657 4.19751 0
      vertex 8.67657 -4.19751 0
    endloop
  endfacet
  facet normal 0 0 -1
    outer loop
      vertex 8.67657 4.19751 0
      vertex 6.25313 0 0
      vertex 6.25313 1.11022e-15 0
    endloop
  endfacet
  facet normal -0.505533 -0.29187 -0.811941
    outer loop
      vertex 7.67275 -5.93617 1.25
      vertex 6.25313 0 0
      vertex 8.67657 -4.19751 0
    endloop
  endfacet
  facet normal 0 0.815119 -0.579293
    outer loop
      vertex 14.594 4.94814 1.09871e-15
      vertex 8.11885 5.83649 1.25
      vertex 14.0812 5.83649 1.25
    endloop
  endfacet
  facet normal 0 0.815119 -0.579293
    outer loop
      vertex 8.11885 5.83649 1.25
      vertex 14.594 4.94814 1.09871e-15
      vertex 7.60595 4.94814 1.09871e-15
    endloop
  endfacet
  facet normal -0.705912 0.407552 -0.579302
    outer loop
      vertex 18.0045 10.8552 2.41034e-15
      vertex 15.8043 8.821 1.25
      vertex 18.0247 10.9244 0.0240639
    endloop
  endfacet
  facet normal -0.705914 0.40756 -0.579293
    outer loop
      vertex 14.594 4.94814 1.09871e-15
      vertex 15.8043 8.821 1.25
      vertex 18.0045 10.8552 2.41034e-15
    endloop
  endfacet
  facet normal -0.705914 0.40756 -0.579293
    outer loop
      vertex 15.8043 8.821 1.25
      vertex 14.594 4.94814 1.09871e-15
      vertex 14.0812 5.83649 1.25
    endloop
  endfacet
  facet normal -0.705912 0.407566 -0.579291
    outer loop
      vertex 18.0247 10.9244 0.0240639
      vertex 17.0623 11 1.25
      vertex 18.0468 11 0.0503626
    endloop
  endfacet
  facet normal -0.705914 0.40756 -0.579293
    outer loop
      vertex 17.0623 11 1.25
      vertex 18.0247 10.9244 0.0240639
      vertex 15.8043 8.821 1.25
    endloop
  endfacet
  facet normal 0.705914 0.407559 -0.579294
    outer loop
      vertex 5.1377 11 1.25
      vertex 4.1955 10.8552 2.41034e-15
      vertex 4.15324 11 0.0503609
    endloop
  endfacet
  facet normal 0.705914 0.407559 -0.579293
    outer loop
      vertex 6.8608 8.01549 1.25
      vertex 4.1955 10.8552 2.41034e-15
      vertex 5.1377 11 1.25
    endloop
  endfacet
  facet normal 0.705914 0.40756 -0.579293
    outer loop
      vertex 4.1955 10.8552 2.41034e-15
      vertex 6.8608 8.01549 1.25
      vertex 7.58614 4.98245 1.10633e-15
    endloop
  endfacet
  facet normal 0.705914 0.40756 -0.579293
    outer loop
      vertex 8.11885 5.83649 1.25
      vertex 7.58614 4.98245 1.10633e-15
      vertex 6.8608 8.01549 1.25
    endloop
  endfacet
  facet normal 0.705912 0.407562 -0.579294
    outer loop
      vertex 7.58614 4.98245 1.10633e-15
      vertex 8.11885 5.83649 1.25
      vertex 7.60595 4.94814 1.09871e-15
    endloop
  endfacet
endsolid OpenSCAD_Model
